<?xml version="1.0" standalone="no"?>
<!DOCTYPE svg PUBLIC "-//W3C//DTD SVG 20010904//EN"
 "http://www.w3.org/TR/2001/REC-SVG-20010904/DTD/svg10.dtd">
<svg version="1.0" xmlns="http://www.w3.org/2000/svg"
 width="1280.000000pt" height="1237.000000pt" viewBox="0 0 1280.000000 1237.000000"
 preserveAspectRatio="xMidYMid meet">
<metadata>
Created by potrace 1.15, written by Peter Selinger 2001-2017
</metadata>
<style>
  g { fill: #000000; }
  @media (prefers-color-scheme: dark) {
    g { fill: #ffffff; }
  }
</style>
<g transform="translate(0.000000,1237.000000) scale(0.100000,-0.100000)"
fill="#000000" stroke="none">
<path d="M10873 12350 c-125 -44 -252 -146 -329 -262 -57 -86 -127 -256 -148
-360 -31 -150 -16 -319 30 -340 54 -25 185 24 304 112 148 110 250 257 291
420 26 102 10 398 -23 438 -15 17 -64 14 -125 -8z"/>
<path d="M9572 12147 c-40 -47 -41 -343 -3 -490 43 -163 136 -295 273 -387
102 -68 166 -74 212 -19 33 38 46 108 46 238 0 157 -37 268 -135 407 -114 160
-346 308 -393 251z"/>
<path d="M940 11645 c-21 -25 -5 -107 41 -213 54 -124 446 -901 574 -1137 438
-810 819 -1352 1484 -2110 716 -818 1271 -1316 1870 -1680 228 -138 713 -369
771 -368 33 1 425 136 443 152 4 4 -122 86 -280 182 -459 278 -723 459 -1068
734 -794 632 -1641 1513 -2165 2250 -347 488 -905 1402 -886 1451 5 13 114 14
958 8 1006 -7 1250 -3 2368 40 l575 23 154 -65 c347 -144 508 -249 634 -414
66 -87 116 -184 150 -293 29 -94 32 -115 93 -510 114 -752 230 -1154 419
-1445 105 -163 346 -369 533 -458 128 -61 248 -57 474 14 169 54 210 84 395
296 234 269 455 471 561 512 89 34 410 46 575 21 185 -28 314 -82 607 -255
215 -127 208 -124 400 -190 256 -89 490 -174 490 -180 -1 -3 -64 -48 -142
-100 -398 -268 -561 -393 -733 -565 -254 -254 -439 -516 -892 -1263 -502 -829
-650 -1040 -912 -1303 -156 -156 -306 -274 -567 -447 -226 -149 -335 -207
-480 -256 -71 -24 -255 -91 -409 -149 -363 -136 -492 -177 -590 -187 -271 -29
-916 -169 -1205 -262 -166 -53 -442 -159 -525 -200 -605 -302 -1231 -910
-1610 -1563 -32 -55 -66 -114 -76 -131 l-18 -30 131 -79 c151 -91 129 -96 205
45 113 209 310 463 558 718 365 377 899 744 1235 850 107 34 786 164 1101 211
249 38 413 78 686 169 467 156 774 299 1098 509 270 176 546 406 728 608 237
263 606 802 842 1230 126 228 178 310 316 496 212 285 432 539 695 804 158
159 257 247 444 393 l115 90 28 -62 c85 -184 138 -337 147 -418 5 -46 18 -119
29 -163 33 -128 46 -353 32 -558 -14 -213 -31 -321 -78 -499 -22 -84 -33 -146
-29 -162 7 -29 70 -76 102 -76 80 0 143 175 180 500 21 180 24 648 5 795 -29
234 -94 483 -178 683 -34 81 -35 83 -17 103 10 11 82 52 159 91 234 116 225
106 225 283 l0 111 -207 49 c-548 127 -674 191 -844 431 -247 347 -561 1103
-600 1442 -13 116 -5 398 16 557 16 118 33 161 160 390 56 103 66 143 40 165
-32 26 -67 15 -116 -38 -136 -148 -259 -566 -259 -882 0 -138 21 -245 95 -489
108 -356 230 -644 438 -1033 46 -87 82 -158 79 -158 -3 0 -107 49 -231 109
-317 153 -467 202 -724 236 -292 38 -473 4 -735 -136 -191 -101 -316 -196
-552 -414 -178 -164 -302 -270 -345 -293 -41 -22 -131 -21 -175 2 -133 70
-278 279 -394 572 -92 231 -187 685 -260 1234 -15 107 -31 220 -37 250 -78
419 -272 721 -569 888 -30 17 -120 56 -200 87 -80 31 -196 79 -259 107 -79 35
-140 55 -200 64 -65 11 -307 17 -1011 24 -1128 11 -1407 20 -2330 75 -665 40
-866 65 -1287 160 -167 38 -243 44 -263 20z"/>
<path d="M9156 11031 c-70 -15 -79 -49 -46 -170 27 -96 80 -207 130 -270 81
-102 245 -204 383 -236 119 -28 189 -16 215 38 48 99 -174 466 -348 577 -79
50 -241 80 -334 61z"/>
<path d="M10808 10916 c-129 -46 -260 -140 -345 -248 -69 -88 -87 -121 -119
-213 -22 -65 -27 -99 -28 -181 -1 -88 2 -105 19 -124 18 -20 27 -22 80 -17 66
7 172 40 256 81 146 72 280 212 355 371 47 101 89 254 80 292 -16 62 -173 83
-298 39z"/>
<path d="M11084 9840 c-51 -20 -182 -194 -256 -341 -60 -120 -71 -181 -65
-344 7 -200 52 -353 106 -368 65 -17 190 99 274 254 64 118 72 156 71 334 -1
174 -25 325 -65 410 -25 54 -38 65 -65 55z"/>
<path d="M9207 9706 c-26 -8 -55 -20 -63 -27 -42 -35 36 -169 174 -300 162
-154 254 -191 472 -192 102 -1 149 3 192 16 70 21 128 69 128 104 0 43 -62
145 -131 215 -76 76 -181 132 -314 169 -102 28 -381 37 -458 15z"/>
<path d="M9385 8282 c-46 -22 -105 -84 -135 -141 -60 -118 17 -253 161 -283
110 -23 233 44 258 140 25 90 -23 218 -100 269 -53 35 -128 41 -184 15z"/>
<path d="M4253 6093 c-207 -230 -251 -263 -492 -370 -277 -122 -507 -207 -661
-242 -177 -41 -264 -46 -755 -44 -778 2 -936 16 -1595 137 -486 89 -588 103
-647 87 -54 -15 -68 -40 -85 -157 -17 -114 -16 -587 1 -784 44 -511 149 -1197
230 -1511 129 -498 470 -1122 891 -1629 343 -412 994 -902 1528 -1149 203 -94
234 -100 251 -48 28 88 97 526 84 538 -5 4 -116 64 -248 134 -261 138 -362
196 -500 289 -564 375 -1025 925 -1285 1529 -215 503 -297 999 -303 1837 l-2
365 60 3 c81 4 302 -12 640 -48 375 -40 575 -50 964 -50 697 0 1080 56 1377
201 167 82 373 233 649 478 226 200 375 336 375 341 0 12 -345 190 -369 190
-12 0 -54 -38 -108 -97z"/>
<path d="M10030 5640 c-32 -45 -108 -210 -119 -259 -9 -40 -7 -45 15 -66 40
-37 170 -100 287 -139 258 -86 568 -136 850 -136 148 0 375 -17 539 -41 348
-49 502 -126 558 -276 31 -84 39 -149 51 -443 17 -439 -8 -1192 -56 -1680 -56
-556 -210 -1728 -236 -1799 -8 -20 -14 -23 -42 -17 -63 13 -575 272 -992 504
-1008 558 -1461 953 -2126 1852 -201 272 -243 333 -279 405 -44 88 -58 91
-161 38 -104 -54 -219 -132 -219 -148 0 -38 183 -345 331 -557 591 -847 1550
-1654 2774 -2335 477 -265 1114 -568 1140 -541 47 47 288 2084 422 3563 30
341 37 760 14 940 -30 237 -81 411 -158 539 -85 139 -285 304 -420 346 -82 25
-228 37 -713 55 -657 26 -977 57 -1167 115 -33 10 -106 39 -161 64 -54 25
-102 46 -105 46 -3 0 -15 -13 -27 -30z"/>
</g>
</svg>
